HIERARCHY
ROOT RootJoint
{
    OFFSET   0.000000   0.000000   0.000000
    CHANNELS 6 Xposition Yposition Zposition Xrotation Yrotation Zrotation
    JOINT pelvis_lowerback
    {
        OFFSET   0.000000   0.093605   0.000000
        CHANNELS 3 Xrotation Yrotation Zrotation
        JOINT lowerback_torso
        {
            OFFSET   0.000000   0.100000   0.000000
            CHANNELS 3 Xrotation Yrotation Zrotation
            JOINT torso_head
            {
                OFFSET   0.000000   0.282350   0.000000
                CHANNELS 3 Xrotation Yrotation Zrotation
                End Site
                {
                    OFFSET   0.000000   0.192650   0.000000
                }
            }
            JOINT rTorso_Clavicle
            {
                OFFSET  -0.001000   0.157500   0.000000
                CHANNELS 3 Xrotation Yrotation Zrotation
                JOINT rShoulder
                {
                    OFFSET  -0.117647   0.000000   0.000000
                    CHANNELS 3 Xrotation Yrotation Zrotation
                    JOINT rElbow
                    {
                        OFFSET  -0.245000   0.000000   0.000000
                        CHANNELS 3 Xrotation Yrotation Zrotation
                        JOINT rWrist
                        {
                            OFFSET  -0.240000   0.000000   0.000000
                            CHANNELS 3 Xrotation Yrotation Zrotation
                            End Site
                            {
                                OFFSET  -0.116353  -0.002500   0.000000
                            }
                        }
                    }
                }
            }
            JOINT lTorso_Clavicle
            {
                OFFSET   0.001000   0.157500   0.000000
                CHANNELS 3 Xrotation Yrotation Zrotation
                JOINT lShoulder
                {
                    OFFSET   0.117647   0.000000   0.000000
                    CHANNELS 3 Xrotation Yrotation Zrotation
                    JOINT lElbow
                    {
                        OFFSET   0.245000   0.000000   0.000000
                        CHANNELS 3 Xrotation Yrotation Zrotation
                        JOINT lWrist
                        {
                            OFFSET   0.240000   0.000000   0.000000
                            CHANNELS 3 Xrotation Yrotation Zrotation
                            End Site
                            {
                                OFFSET   0.116353  -0.002500   0.000000
                            }
                        }
                    }
                }
            }
        }
    }
    JOINT rHip
    {
        OFFSET  -0.100000  -0.051395   0.000000
        CHANNELS 3 Xrotation Yrotation Zrotation
        JOINT rKnee
        {
            OFFSET   0.000000  -0.410000   0.000000
            CHANNELS 3 Xrotation Yrotation Zrotation
            JOINT rAnkle
            {
                OFFSET   0.000000  -0.390000   0.000000
                CHANNELS 3 Xrotation Yrotation Zrotation
                JOINT rToeJoint
                {
                    OFFSET   0.000000  -0.050000   0.130000
                    CHANNELS 3 Xrotation Yrotation Zrotation
                    End Site
                    {
                        OFFSET  -0.010000   0.002000   0.060000
                    }
                }
            }
        }
    }
    JOINT lHip
    {
        OFFSET   0.100000  -0.051395   0.000000
        CHANNELS 3 Xrotation Yrotation Zrotation
        JOINT lKnee
        {
            OFFSET   0.000000  -0.410000   0.000000
            CHANNELS 3 Xrotation Yrotation Zrotation
            JOINT lAnkle
            {
                OFFSET   0.000000  -0.390000   0.000000
                CHANNELS 3 Xrotation Yrotation Zrotation
                JOINT lToeJoint
                {
                    OFFSET   0.000000  -0.050000   0.130000
                    CHANNELS 3 Xrotation Yrotation Zrotation
                    End Site
                    {
                        OFFSET   0.010000   0.002000   0.060000
                    }
                }
            }
        }
    }
}
MOTION
Frames: 14
Frame Time:   0.008333
 -2.376719   0.925631   3.975860   0.000000   0.000000   0.000000   0.000000   0.000000   0.000000   0.000000   0.000000   0.000000   0.000000   0.000000   0.000000   0.000000   0.000000   0.000000   0.000000   0.000000   0.000000   0.000000   0.000000   0.000000   0.000000   0.000000   0.000000   0.000000   0.000000   0.000000   0.000000   0.000000   0.000000   0.000000   0.000000   0.000000   0.000000   0.000000   0.000000   0.000000   0.000000   0.000000   0.000000   0.000000   0.000000   0.000000   0.000000   0.000000   0.000000   0.000000   0.000000   0.000000   0.000000   0.000000   0.000000   0.000000   0.000000   0.000000   0.000000   0.000000   0.000000   0.000000   0.000000
 -2.376613   0.925987   3.976221  -0.127701   0.069323  -0.072738   0.072349   0.002437   0.097753  -0.005286  -0.115693   0.033440  -0.077374   0.140905  -0.021719   0.264281  -0.359653  -0.047182   1.046093   0.379212   2.193515   0.020183   1.039990  -0.011525   0.359919  -0.545735  -2.367604   0.195952   0.364592  -0.164830   1.131525  -0.212519  -2.141151   0.024856  -1.256369   0.014132   0.387668   0.531422   2.433477   0.059077  -0.142381   0.001568   0.414437   0.000257  -0.000266  -0.664017  -0.474806  -0.124159  -0.163904  -0.000279   0.000783   0.006400  -0.134529   0.150553   0.625551  -0.000427  -0.000353  -0.896040   0.143734   0.114631   0.253941  -0.000424   0.000175
 -2.376482   0.926641   3.976802  -0.282506   0.125548  -0.151538   0.090966   0.008571   0.206557  -0.025013  -0.228162   0.073945  -0.150433   0.276470  -0.032968   0.521713  -0.637134   0.532370   2.061037   0.860795   4.880989   0.046511   2.060281  -0.019416   0.757020  -0.753364  -4.070404   0.392103   0.645723  -0.980339   2.233950  -0.534209  -4.805424   0.057203  -2.482635   0.023868   0.815952   0.684637   4.177324   0.153520  -0.285649  -0.059214   0.865457   0.000749  -0.000565  -1.288582  -0.923800  -0.247099  -0.361390  -0.000679   0.001547   0.082535  -0.260362   0.371285   1.300279  -0.001188  -0.000674  -1.735583   0.278829   0.224810   0.443799  -0.000753   0.000251
 -2.376341   0.927238   3.977529  -0.431421   0.173939  -0.226760   0.064336   0.012035   0.312302  -0.077567  -0.335500   0.113042  -0.228063   0.403105  -0.039216   0.764311  -0.846327   1.510894   3.033839   1.423501   7.888340   0.072365   3.026873  -0.024188   1.143251  -0.821122  -5.056034   0.578969   0.856587  -2.193673   3.298862  -0.945935  -7.803472   0.088884  -3.642188   0.029919   1.232636   0.690056   5.178533   0.254219  -0.421719  -0.178899   1.301249   0.001331  -0.000808  -1.872383  -1.342676  -0.367020  -0.548905  -0.001064   0.002060   0.196803  -0.376201   0.640629   1.957330  -0.002079  -0.000884  -2.518728   0.404270   0.329911   0.613829  -0.001042   0.000290
 -2.376197   0.927522   3.978353  -0.568503   0.217921  -0.297488   0.006048   0.011539   0.411752  -0.156759  -0.438999   0.148750  -0.309231   0.521249  -0.043301   0.994470  -1.011104   2.725118   3.962980   2.057429  11.109812   0.094728   3.936356  -0.026816   1.514974  -0.820749  -5.511669   0.757775   1.020843  -3.633748   4.326115  -1.438739 -11.022440   0.116240  -4.732341   0.033479   1.633291   0.626064   5.635386   0.351940  -0.550219  -0.346459   1.712389   0.001908  -0.000985  -2.418520  -1.733203  -0.483515  -0.726027  -0.001408   0.002373   0.334652  -0.482598   0.947546   2.584390  -0.002973  -0.000982  -3.249953   0.520682   0.429981   0.765329  -0.001273   0.000306
 -2.376056   0.927305   3.979239  -0.693849   0.258767  -0.364025  -0.073084   0.007031   0.504142  -0.253423  -0.539301   0.180769  -0.391265   0.631474  -0.046391   1.213915  -1.147540   4.064584   4.846500   2.754825  14.472665   0.112399   4.788755  -0.028024   1.870916  -0.785533  -5.608045   0.929339   1.154404  -5.187532   5.314141  -2.005583 -14.386121   0.137853  -5.753997   0.035409   2.016508   0.527109   5.725825   0.443203  -0.671238  -0.551501   2.097770   0.002425  -0.001104  -2.929480  -2.097195  -0.596254  -0.892523  -0.001694   0.002531   0.487961  -0.580166   1.283209   3.179286  -0.003793  -0.000991  -3.932804   0.628690   0.525116   0.900560  -0.001444   0.000308
 -2.375918   0.926449   3.980156  -0.808639   0.296558  -0.426735  -0.164993  -0.001154   0.589507  -0.359988  -0.636639   0.209224  -0.472131   0.734327  -0.048999   1.423781  -1.265075   5.455337   5.682060   3.509948  17.927422   0.125222   5.585764  -0.028319   2.210561  -0.733584  -5.471621   1.094054   1.266725  -6.780484   6.260444  -2.641178 -17.843078   0.153564  -6.709681   0.036296   2.381841   0.411262   5.580170   0.526358  -0.784956  -0.785156   2.458033   0.002857  -0.001178  -3.407500  -2.436386  -0.704981  -1.048245  -0.001914   0.002574   0.651158  -0.669534   1.639838   3.742097  -0.004493  -0.000938  -4.570459   0.728879   0.615430   1.021779  -0.001557   0.000300
 -2.375730   0.924327   3.980601  -0.765190   0.298520  -0.432141  -0.278913   0.000640   0.677233  -0.503564  -0.737513   0.130211  -0.712276   0.730102  -0.080104   1.657084  -1.325399   6.110624   6.663622   4.425873  21.719709   0.141557   6.591882  -0.033219   2.492603  -0.721128  -4.595463   1.361463   1.377212  -7.638880   7.037514  -3.322090 -21.413566   0.165881  -7.769694   0.038607   2.696730   0.187379   4.545943   0.412248  -1.102346  -1.060890   2.673613   0.002780  -0.001571  -3.421849  -2.902443  -0.663581  -1.006496  -0.001434   0.001778   0.691754  -0.666097   1.883113   3.846437  -0.003811  -0.000727  -4.970692   0.875790   0.798435   1.159916  -0.001745   0.000434
 -2.375538   0.921112   3.980743  -0.699429   0.298470  -0.429296  -0.337593   0.003824   0.758565  -0.630269  -0.826997   0.048781  -0.947080   0.720783  -0.121180   1.862243  -1.333538   6.614943   7.513345   5.374568  25.193985   0.149081   7.552365  -0.036676   2.784884  -0.574448  -3.672901   1.599456   1.446891  -8.296747   7.716768  -4.019501 -24.653238   0.168995  -8.772265   0.039980   3.005759  -0.126445   3.524679   0.259287  -1.412255  -1.318766   2.838626   0.002562  -0.001729  -3.430962  -3.341418  -0.625853  -0.930185  -0.000989   0.000930   0.667713  -0.660203   2.078833   3.860842  -0.003074  -0.000579  -5.348262   1.012305   0.970489   1.285771  -0.001793   0.000517
 -2.375307   0.921168   3.981192  -0.735042   0.265591  -0.320555  -0.345359   0.024425   0.757881  -0.708043  -0.894730  -0.057489  -1.153472   0.712177  -0.166597   2.049354  -1.314319   7.286483   8.243666   6.326866  28.481898   0.152676   8.450755  -0.038132   3.070645  -0.415623  -2.909154   1.819133   1.500891  -9.074647   8.309956  -4.711779 -27.696094   0.168303  -9.702713   0.039845   3.301959  -0.407705   2.706819   0.131879  -1.743044  -1.502752   3.136239   0.002175  -0.002358  -3.142705  -3.790247  -0.501765  -0.782945  -0.000805  -0.000298   0.600779  -0.595754   1.950439   4.110423  -0.002416  -0.000375  -5.305147   1.187164   1.038826   1.472630  -0.001514   0.000760
 -2.375126   0.921301   3.981753  -0.740257   0.221483  -0.229600  -0.377487   0.050228   0.784240  -0.787306  -0.949648  -0.149696  -1.345245   0.704290  -0.212512   2.222546  -1.291123   7.808265   8.873301   7.262332  31.536444   0.151109   9.300007  -0.038282   3.344240  -0.198259  -2.074309   2.026752   1.553098  -9.692388   8.831877  -5.389267 -30.522034   0.162830 -10.579715   0.038788   3.582240  -0.726290   1.836852   0.036963  -2.011195  -1.651330   3.359460   0.001802  -0.002513  -3.092595  -4.168097  -0.469571  -0.677515  -0.000604  -0.000873   0.567403  -0.578639   1.832861   4.291486  -0.001896  -0.000335  -5.495554   1.307015   1.176153   1.613808  -0.001342   0.000735
 -2.374995   0.921416   3.982330  -0.717208   0.177011  -0.151421  -0.411737   0.077391   0.825376  -0.871046  -0.996902  -0.223585  -1.526612   0.697022  -0.254682   2.378737  -1.265071   8.232865   9.414523   8.165010  34.344797   0.145781  10.094989  -0.037492   3.604871   0.030875  -1.320750   2.217418   1.600658 -10.201197   9.289173  -6.041291 -33.114506   0.154035 -11.399314   0.037085   3.847514  -1.044769   1.057288  -0.059780  -2.257402  -1.780461   3.535086   0.001481  -0.002467  -3.064374  -4.518668  -0.442701  -0.600102  -0.000459  -0.001132   0.532205  -0.569283   1.731435   4.424627  -0.001494  -0.000305  -5.700779   1.414747   1.309884   1.724439  -0.001174   0.000667
 -2.374911   0.921507   3.982914  -0.677241   0.137841  -0.083255  -0.439827   0.104054   0.877685  -0.951110  -1.039274  -0.280989  -1.696351   0.690320  -0.293137   2.519780  -1.238455   8.580073   9.879119   9.029194  36.930482   0.138052  10.837662  -0.036079   3.852513   0.254786  -0.665817   2.391764   1.643947 -10.620753   9.689577  -6.664811 -35.494564   0.143295 -12.164326   0.034977   4.098601  -1.350760   0.385003  -0.158978  -2.487253  -1.893831   3.684866   0.001213  -0.002334  -3.041642  -4.846211  -0.416743  -0.531729  -0.000350  -0.001262   0.493468  -0.562297   1.644207   4.530118  -0.001181  -0.000272  -5.904268   1.513951   1.436639   1.823636  -0.001027   0.000600
 -2.374974   0.921610   3.983517  -0.615073   0.108718  -0.047743  -0.461903   0.111198   0.903098  -1.029630  -1.030989  -0.258918  -1.844430   0.625121  -0.344556   2.583378  -1.300710   8.548437  10.254504   9.791080  39.047183   0.126834  11.604118  -0.033880   4.050148   0.634919   0.674940   2.552450   1.704472 -10.604260  10.023493  -7.337476 -37.600372   0.130859 -12.976105   0.033201   4.313547  -1.706549  -0.815274  -0.206405  -2.722759  -1.953375   3.705506   0.000971  -0.001915  -3.063195  -5.020572  -0.400796  -0.328154  -0.000265  -0.001788   0.466980  -0.592174   1.601660   4.557416  -0.000944  -0.000231  -6.022559   1.621130   1.542497   1.914372  -0.000896   0.000523
